<svg width="240" height="240" viewBox="0 0 240 240" fill="none" xmlns="http://www.w3.org/2000/svg">
  <defs>
    <radialGradient id="bg" cx="0" cy="0" r="1" gradientUnits="userSpaceOnUse" gradientTransform="translate(120 98) rotate(90) scale(142)">
      <stop offset="0" stop-color="#31A3FF"/>
      <stop offset="1" stop-color="#0B64D8"/>
    </radialGradient>
    <linearGradient id="planeBody" x1="62" y1="98" x2="176" y2="72" gradientUnits="userSpaceOnUse">
      <stop offset="0" stop-color="#EAF3FF"/>
      <stop offset="1" stop-color="#FFFFFF"/>
    </linearGradient>
    <linearGradient id="planeWing" x1="138" y1="130" x2="170" y2="76" gradientUnits="userSpaceOnUse">
      <stop offset="0" stop-color="#D1E7FF"/>
      <stop offset="1" stop-color="#9CC6F5"/>
    </linearGradient>
    <linearGradient id="redFlag" x1="150" y1="128" x2="166" y2="109" gradientUnits="userSpaceOnUse">
      <stop offset="0" stop-color="#FF1E43"/>
      <stop offset="1" stop-color="#FF0038"/>
    </linearGradient>
    <filter id="shadow" x="42" y="62" width="156" height="96" filterUnits="userSpaceOnUse" color-interpolation-filters="sRGB">
      <feFlood flood-opacity="0" result="BackgroundImageFix"/>
      <feColorMatrix in="SourceAlpha" type="matrix" values="0 0 0 0 0 0 0 0 0 0 0 0 0 0 0 0 0 0 127 0" result="hardAlpha"/>
      <feOffset dx="0" dy="6"/>
      <feGaussianBlur stdDeviation="5"/>
      <feComposite in2="hardAlpha" operator="out"/>
      <feColorMatrix type="matrix" values="0 0 0 0 0.043 0 0 0 0 0.176 0 0 0 0 0.437 0 0 0 0.4 0"/>
      <feBlend mode="normal" in2="BackgroundImageFix" result="effect1_dropShadow_1_1"/>
      <feBlend mode="normal" in="SourceGraphic" in2="effect1_dropShadow_1_1" result="shape"/>
    </filter>
  </defs>

  <circle cx="120" cy="120" r="108" fill="url(#bg)"/>

  <g filter="url(#shadow)">
    <path d="M50 98C48 96 48 92 52 91L174 50C179 48 182 53 179 57L139 131C138 133 135 134 132 132L50 98Z" fill="url(#planeBody)"/>
    <path d="M136 132L155 102L179 57L112 116L136 132Z" fill="url(#planeWing)"/>
    <path d="M137 132L176 99L160 137C158 141 153 143 149 141L137 132Z" fill="url(#redFlag)"/>
  </g>

  <text x="120" y="192" text-anchor="middle" fill="#F7FBFF" font-size="30" font-weight="700" font-family="IBM Plex Sans, Segoe UI, sans-serif">
    ProRus91
  </text>
</svg>
